<svg id="_0118_team_work" xmlns="http://www.w3.org/2000/svg" viewBox="0 0 500 500" data-imageid="team-work-3-37" imageName="Team Work 3" class="illustrations_image" style="width: 151px;"><defs><style>.cls-1_team-work-3-37,.cls-2_team-work-3-37,.cls-3_team-work-3-37{fill:#fff;}.cls-4_team-work-3-37{fill:#f4a28c;}.cls-5_team-work-3-37,.cls-6_team-work-3-37{fill:#a5a5a5;}.cls-7_team-work-3-37{fill:#000001;opacity:.03;}.cls-2_team-work-3-37{opacity:.56;}.cls-8_team-work-3-37{opacity:.08;}.cls-9_team-work-3-37{fill:#e6e6e6;}.cls-6_team-work-3-37{opacity:.34;}.cls-10_team-work-3-37{fill:#ce8172;opacity:.31;}.cls-11_team-work-3-37{opacity:.58;}.cls-11_team-work-3-37,.cls-12_team-work-3-37,.cls-13_team-work-3-37{fill:#68e1fd;}.cls-14_team-work-3-37{opacity:.12;}.cls-3_team-work-3-37{opacity:.46;}.cls-15_team-work-3-37{fill:#24285b;}.cls-12_team-work-3-37{opacity:.73;}.cls-16_team-work-3-37{fill:#ffd200;}</style></defs><ellipse id="sd_team-work-3-37" class="cls-7_team-work-3-37" cx="239.24" cy="446.58" rx="207.5" ry="34.58"/><g id="phone_team-work-3-37"><rect class="cls-9_team-work-3-37" x="257.24" y="56.64" width="46.08" height="7.29"/><rect class="cls-5_team-work-3-37" x="268.47" y="49.32" width="34.86" height="7.29"/><rect class="cls-9_team-work-3-37" x="135.1" y="63.97" width="210.72" height="377.92"/><rect class="cls-1_team-work-3-37" x="152.54" y="107.05" width="174.42" height="265.97"/><circle class="cls-2_team-work-3-37" cx="241.1" cy="407.08" r="20.62"/><rect class="cls-5_team-work-3-37" x="222.64" y="78.74" width="59.08" height="8.62"/><circle class="cls-1_team-work-3-37" cx="201.24" cy="83.99" r="9.62"/><path class="cls-8_team-work-3-37" d="m134.81,321.11l.9,19.13,18.49-3.84,7.87-33.34c3.04-12.89,13.85-22.48,27.02-23.92,14.01-1.53,31.55-2.98,42.69-2.2,21.01,1.47,65.38-3.55,80.27,9.23,14.9,12.78,16.49,47.1,33.77,59.72v-23.93l-5.02-64.39-19.07-6.49-67.48,10.01-7.21,1.24-7.45,4.04-15.85-7.92-91.25-3.81,2.32,66.47Z"/><circle class="cls-15_team-work-3-37" cx="239.59" cy="187.49" r="49.98"/><path class="cls-1_team-work-3-37" d="m233.36,210.19s-.05,0-.08,0c-.84-.03-1.61-.47-2.05-1.19l-12.07-19.65c-.72-1.18-.35-2.72.82-3.44,1.18-.72,2.72-.35,3.44.82l10.07,16.4,22.34-31.89c.79-1.13,2.35-1.41,3.48-.61s1.41,2.35.61,3.48l-24.52,35.01c-.47.67-1.23,1.07-2.05,1.07Z"/><rect class="cls-16_team-work-3-37" x="201.24" y="293.2" width="79.34" height="36.55"/><rect class="cls-6_team-work-3-37" x="215.85" y="343.51" width="50.51" height="10.73"/><rect class="cls-3_team-work-3-37" x="230.36" y="299.32" width="42.31" height="9.08"/><path class="cls-11_team-work-3-37 targetColor" d="m299.42,47.64s-12.88-3.52-15.68-15.51c0,0,19.96-4.03,20.53,16.57l-4.84-1.06Z" style="fill: rgb(104, 225, 253);"/><path class="cls-12_team-work-3-37 targetColor" d="m301,46.37s-9-14.23-1.08-27.53c0,0,15.18,9.64,8.43,27.56l-7.35-.03Z" style="fill: rgb(104, 225, 253);"/><path class="cls-13_team-work-3-37 targetColor" d="m303.32,46.38s4.76-15.03,19.13-17.87c0,0,2.69,9.76-9.31,17.91l-9.82-.04Z" style="fill: rgb(104, 225, 253);"/><polygon class="cls-15_team-work-3-37" points="293.98 46.04 296.59 63.9 313.04 63.97 315.46 46.13 293.98 46.04"/></g><g id="check2_team-work-3-37"><polygon class="cls-9_team-work-3-37" points="353.28 121.39 353.28 153.73 374.18 153.73 378.75 166.6 384.15 153.73 405.05 153.73 405.05 121.39 353.28 121.39"/><path class="cls-14_team-work-3-37" d="m376.56,144.78s-.05,0-.07,0c-.48-.02-.92-.25-1.21-.62l-5.47-7.03c-.55-.7-.42-1.72.29-2.27.7-.55,1.72-.42,2.27.29l4.3,5.53,10.6-11.45c.6-.66,1.63-.7,2.29-.09.66.61.69,1.63.09,2.29l-11.89,12.84c-.31.33-.74.52-1.19.52Z"/></g><g id="check1_team-work-3-37"><polygon class="cls-9_team-work-3-37" points="74.27 128.91 74.27 161.25 95.16 161.25 99.73 174.12 105.13 161.25 126.03 161.25 126.03 128.91 74.27 128.91"/><path class="cls-14_team-work-3-37" d="m97.54,152.3s-.05,0-.07,0c-.48-.02-.92-.25-1.21-.62l-5.47-7.03c-.55-.7-.42-1.72.29-2.27.7-.55,1.72-.42,2.27.29l4.3,5.53,10.6-11.45c.6-.66,1.63-.7,2.29-.09.66.61.69,1.63.09,2.29l-11.89,12.84c-.31.33-.74.52-1.19.52Z"/></g><g id="boy2_team-work-3-37"><path class="cls-4_team-work-3-37" d="m251.33,255.93l-4.3,1.27c-2.85.84-4.98,3.24-5.47,6.17-.36,2.2-.25,4.45,1.47,5.17,3.69,1.54,9.64-6.31,9.64-6.31l-1.35-6.31Z"/><path class="cls-4_team-work-3-37" d="m369.56,200.52s-.9,6.85.05,11.47c.39,1.88,2.25,3.1,4.12,2.69,2.32-.51,5.31-1.88,6.24-5.5l2.33-5.94s1.33-3.77-2.44-6.74c-3.77-2.97-9.97-.18-10.31,4.01Z"/><polygon class="cls-4_team-work-3-37" points="381.88 204.32 384.45 226.81 371.95 227.34 375.1 210.76 381.88 204.32"/><path class="cls-4_team-work-3-37" d="m369.21,204.86l-2.04,2.57c-.5.64-.18,1.58.61,1.76l2.62.61-1.19-4.95Z"/><path class="cls-4_team-work-3-37" d="m366.93,227.57l-118.11,29.1,3.17,6.41s57.8-.05,102.12,8.45c44.32,8.5,12.82-43.97,12.82-43.97Z"/><path class="cls-10_team-work-3-37" d="m374.26,214.36s2.33-.37,4.15-2.23c0,0-.36,4.13-5.08,8.01l.94-5.78Z"/><path class="cls-13_team-work-3-37 targetColor" d="m313.3,266.04l3.04-26,41.74-10.73,4.76,43.16s-23.39,2.76-49.54-6.43Z" style="fill: rgb(104, 225, 253);"/><path class="cls-8_team-work-3-37" d="m313.3,266.04l3.04-26,41.74-10.73,4.76,43.16s-23.39,2.76-49.54-6.43Z"/><path class="cls-13_team-work-3-37 targetColor" d="m358.08,229.31s53.58-12,72.77-1.24c19.19,10.76-18.48,112.16-18.48,112.16l-59.16-1.87s-51.76-98.76,4.87-109.05Z" style="fill: rgb(104, 225, 253);"/><path class="cls-13_team-work-3-37 targetColor" d="m370.05,435.45s-2.76,4.96-7.58,4.59c-4.83-.37-6.84,4.08-2.75,5.99,4.09,1.91,16.03-1.8,16.03-1.8l1.03-8.79h-6.72Z" style="fill: rgb(104, 225, 253);"/><path class="cls-13_team-work-3-37 targetColor" d="m413.39,434.35s1.96,5.33,6.79,5.7c4.83.37,6.13,5.08,1.8,6.34-4.33,1.26-15.57-4.23-15.57-4.23l.33-8.84,6.65,1.03Z" style="fill: rgb(104, 225, 253);"/><path class="cls-15_team-work-3-37" d="m353.21,338.36l15.13,97.08h9.9s-9.17-73.01,6.84-81.83c16-8.81,19.15,81.83,19.15,81.83l10.49-.84-.12-100.1-61.39,3.86Z"/><path class="cls-8_team-work-3-37" d="m411.47,240.04s-12.87,10.21-5.05,32.44c7.82,22.23.4,59.93-21.97,63.93l30.16-1.9,15.27-50.48-18.42-43.98Z"/><path class="cls-15_team-work-3-37" d="m366.14,193.42c.86,1.37,1.55,2.87,1.74,4.47.2,1.68,1.09,3.47,4.07,2.95,5.36-.92,3.51,9.03,10.44,7.9,3-.49,4.18-2.04,4.55-3.64.5-2.11,1.9-3.95,3.85-4.9,1.46-.7,2.58-2.12,1.9-4.95-1.54-6.42-6.51,1.57-8.25-5.26-1.74-6.84-4.64-5.77-6.04-4.54s-2.86,3.08-5.08.82-10.27,2.22-7.17,7.15Z"/><path class="cls-4_team-work-3-37" d="m376.63,208.07c-.38-.49-.48-1.14-.24-1.71.39-.93,1.15-2.16,2.4-1.97,1.35.2,1.53,2.25.64,3.61-.64.98-2.09,1-2.8.07h0Z"/><path class="cls-13_team-work-3-37 targetColor" d="m425.67,225.74c11.32,1,25.66,10.81,35.46,48.04l-34.33,12.39-14.62-42.83c-3.07-9,4.01-18.43,13.48-17.6Z" style="fill: rgb(104, 225, 253);"/><path class="cls-3_team-work-3-37" d="m425.67,225.74c11.32,1,25.66,10.81,35.46,48.04l-34.33,12.39-14.62-42.83c-3.07-9,4.01-18.43,13.48-17.6Z"/><path class="cls-4_team-work-3-37" d="m459.29,273.78l7.95,28.32c3.91,13.93-3.84,28.47-17.58,33l-24.1,5.98c-2.65.66-4.79,2.66-5.54,5.29-.73,2.55-2,5.3-4.09,5.12-8.68-.77-.41-13.11-.41-13.11l23.52-14.67c6.04-3.77,8.18-11.54,4.93-17.87l-11.21-21.8,26.53-10.24Z"/></g><g id="boy1_team-work-3-37"><path class="cls-13_team-work-3-37 targetColor" d="m113.2,227.57l118.58,26.88-2.15,10.07s-59.3-1.48-103.61,7.02c-44.32,8.5-12.82-43.97-12.82-43.97Z" style="fill: rgb(104, 225, 253);"/><path class="cls-8_team-work-3-37" d="m113.2,227.57l118.58,26.88-2.15,10.07s-59.3-1.48-103.61,7.02c-44.32,8.5-12.82-43.97-12.82-43.97Z"/><path class="cls-4_team-work-3-37" d="m110.57,200.52s.9,6.85-.05,11.47c-.39,1.88-2.25,3.1-4.12,2.69-2.32-.51-5.31-1.88-6.24-5.5l-2.33-5.94s-1.33-3.77,2.44-6.74c3.77-2.97,9.97-.18,10.31,4.01Z"/><polygon class="cls-4_team-work-3-37" points="98.25 204.32 95.68 226.81 108.18 227.34 105.03 210.76 98.25 204.32"/><path class="cls-4_team-work-3-37" d="m110.92,204.86l2.04,2.57c.5.64.18,1.58-.61,1.76l-2.62.61,1.19-4.95Z"/><path class="cls-10_team-work-3-37" d="m105.87,214.36s-2.33-.37-4.15-2.23c0,0,.36,4.13,5.08,8.01l-.94-5.78Z"/><path class="cls-13_team-work-3-37 targetColor" d="m122.04,229.31s-53.58-12-72.77-1.24c-19.19,10.76,18.48,112.16,18.48,112.16l59.16-1.87s51.76-98.76-4.87-109.05Z" style="fill: rgb(104, 225, 253);"/><path class="cls-13_team-work-3-37 targetColor" d="m110.08,435.45s2.76,4.96,7.58,4.59,6.84,4.08,2.75,5.99c-4.09,1.91-16.03-1.8-16.03-1.8l-1.03-8.79h6.72Z" style="fill: rgb(104, 225, 253);"/><path class="cls-13_team-work-3-37 targetColor" d="m66.74,434.35s-1.96,5.33-6.79,5.7c-4.83.37-6.13,5.08-1.8,6.34,4.33,1.26,15.57-4.23,15.57-4.23l-.33-8.84-6.65,1.03Z" style="fill: rgb(104, 225, 253);"/><path class="cls-8_team-work-3-37" d="m75.52,237.48s16.92,10.97,8.31,36.01c-8.61,25.04-10.02,43.01,10.32,36.73s18.84-34.33,18.84-34.33l20.73,3.21,2,39.8-8.8,19.47-51.39-3.23-20.94-5.35-7.81-26.24,14.22-44.47,14.53-21.59Z"/><path class="cls-15_team-work-3-37" d="m126.91,338.36l-15.13,97.08h-9.9s9.17-73.01-6.84-81.83c-16-8.81-19.15,81.83-19.15,81.83l-10.49-.84.12-100.1,61.39,3.86Z"/><path class="cls-13_team-work-3-37 targetColor" d="m65.08,224.89s-33.33-5.61-33.33,46.84c0,52.45,8.01,99.13,84.94,52.35l-5.85-8.93s-41.43,18.24-50.25,2.22c-8.81-16.03,34.61-83.58,4.48-92.47Z" style="fill: rgb(104, 225, 253);"/><path class="cls-3_team-work-3-37" d="m65.08,224.89s-33.33-5.61-33.33,46.84c0,52.45,8.01,99.13,84.94,52.35l-5.85-8.93s-41.43,18.24-50.25,2.22c-8.81-16.03,34.61-83.58,4.48-92.47Z"/><rect class="cls-16_team-work-3-37" x="120.26" y="274.43" width="29.1" height="43.56" transform="translate(193.28 616.37) rotate(-165.88)"/><path class="cls-15_team-work-3-37" d="m109.24,200.8c-.48.16-1,.3-1.56.41-.75.15-1.47.42-2.18.72l-.56.25c-.81.36-1.33,1.16-1.33,2.05.02,2.2-.69,6.25-6.02,6.7,0,0-5.43-8.12-1.09-14.36,2.4-3.45,6.87-5.72,10.93-5.82,5.81-.15,7.32,8.23,1.8,10.04Z"/><path class="cls-4_team-work-3-37" d="m103.5,208.07c.38-.49.48-1.14.24-1.71-.39-.93-1.15-2.16-2.4-1.97-1.35.2-1.53,2.25-.64,3.61.64.98,2.09,1,2.8.07h0Z"/><path class="cls-4_team-work-3-37" d="m231.46,255.93l4.59,1.36c2.55.76,4.52,2.84,5.06,5.45.49,2.39.53,5.02-1.35,5.8-3.69,1.54-9.64-6.31-9.64-6.31l1.35-6.31Z"/><path class="cls-13_team-work-3-37 targetColor" d="m91.24,225.77s.77-8.8,11.1-5.63,10.85,7.43,10.85,7.43l-21.96-1.8Z" style="fill: rgb(104, 225, 253);"/><path class="cls-3_team-work-3-37" d="m91.24,225.77s.77-8.8,11.1-5.63,10.85,7.43,10.85,7.43l-21.96-1.8Z"/><path class="cls-4_team-work-3-37" d="m112.01,316.94s5.65-8.57,10.97-4.23c5.32,4.33-7.68,9.26-7.68,9.26l-3.29-5.03Z"/></g></svg>