<?xml version="1.0" standalone="no"?>
<!DOCTYPE svg PUBLIC "-//W3C//DTD SVG 20010904//EN"
 "http://www.w3.org/TR/2001/REC-SVG-20010904/DTD/svg10.dtd">
<svg version="1.0" xmlns="http://www.w3.org/2000/svg"
 width="3200.000000pt" height="3538.000000pt" viewBox="0 0 3200.000000 3538.000000"
 preserveAspectRatio="xMidYMid meet">

<g transform="translate(0.000000,3538.000000) scale(0.100000,-0.100000)"
fill="#000000" stroke="none">
<path d="M18757 33799 c-100 -24 -217 -114 -288 -222 -21 -32 -39 -62 -41 -67
-2 -6 -46 12 -98 38 -310 155 -733 198 -1136 117 -535 -108 -856 -387 -857
-745 -1 -365 237 -573 706 -615 42 -4 77 -5 77 -1 0 3 -20 40 -45 82 -25 41
-45 79 -45 82 0 17 1079 561 1119 565 22 2 28 -7 59 -78 78 -182 183 -324 269
-366 42 -20 55 -21 167 -16 66 4 137 10 157 13 35 6 37 5 44 -27 8 -38 65
-164 87 -192 12 -16 20 -17 87 -6 l73 12 -6 44 c-3 25 -32 110 -64 191 -90
224 -101 291 -59 372 31 63 90 91 186 91 207 0 384 -132 407 -304 8 -59 -19
-172 -56 -230 l-28 -44 18 -84 c12 -61 37 -124 89 -229 l73 -145 -7 100 c-50
789 -206 1363 -423 1556 -107 95 -315 143 -465 108z"/>
<path d="M17881 30308 c-18 -68 -38 -143 -46 -168 -34 -107 -229 -925 -304
-1270 -226 -1044 -463 -2433 -596 -3490 -102 -813 -117 -946 -189 -1665 -76
-757 -186 -2190 -169 -2205 62 -52 185 -140 181 -129 -16 42 -30 131 -22 138
10 9 53 32 399 214 121 63 314 165 429 226 l210 110 0 153 c1 153 1 153 42
273 88 256 178 412 313 546 72 71 104 94 182 133 107 52 174 71 306 86 97 11
143 23 155 43 10 17 0 51 -44 147 -247 533 -415 1333 -508 2410 -11 129 -22
260 -25 290 -5 58 -17 237 -36 535 -18 268 -15 765 5 970 83 848 332 1597 767
2307 42 69 75 129 71 132 -3 3 -13 6 -23 6 -28 0 -188 49 -266 81 -40 17 -115
57 -166 89 l-94 59 -69 -22 c-49 -15 -95 -22 -159 -22 -78 0 -97 4 -145 27
-30 15 -78 48 -107 73 -28 25 -53 45 -56 45 -2 0 -19 -55 -36 -122z"/>
<path d="M9847 23989 c-448 -48 -801 -400 -846 -846 -45 -441 220 -856 639
-998 105 -36 179 -47 314 -46 521 1 936 421 936 946 0 361 -197 683 -519 846
-92 47 -219 86 -304 94 -128 12 -144 12 -220 4z"/>
<path d="M12750 21724 c-347 -27 -556 -54 -781 -99 -440 -89 -822 -214 -1229
-404 -158 -74 -431 -220 -457 -245 -10 -9 -13 -583 -13 -2781 l0 -2770 52 -11
c379 -77 686 -398 754 -786 21 -119 14 -300 -15 -411 -121 -463 -577 -781
-1042 -727 -247 28 -426 115 -599 289 -185 186 -282 422 -282 686 1 176 47
344 138 497 63 107 230 277 327 332 l67 39 0 2610 c0 2484 -1 2609 -17 2596
-146 -113 -390 -339 -536 -495 -831 -893 -1313 -1961 -1434 -3179 -17 -168
-18 -353 -18 -2760 l0 -2580 23 -215 c27 -255 29 -262 51 -255 109 34 381 90
546 112 164 22 665 25 825 5 110 -14 271 -39 276 -44 1 -2 6 -1762 10 -3911
l7 -3907 3719 0 3718 0 0 1580 0 1580 -1202 0 c-1280 0 -1361 3 -1523 49 -135
39 -306 106 -305 120 1 3 23 23 50 45 74 58 244 230 317 321 246 305 403 656
479 1072 23 124 26 550 6 683 -75 483 -292 921 -630 1272 l-83 86 53 20 c89
33 278 71 409 82 82 7 895 10 2398 9 l2275 -2 -2 54 c-1 30 -9 200 -17 379
-22 493 -29 1020 -16 1200 11 158 39 306 195 1048 31 144 56 269 56 277 0 13
-21 15 -147 13 l-148 -3 -6 -885 c-6 -893 -9 -961 -47 -1223 l-7 -48 -170 -5
c-93 -2 -555 -9 -1025 -14 -823 -10 -1429 -18 -3118 -40 l-783 -10 -61 47
c-234 180 -592 356 -888 438 -372 103 -710 107 -1053 13 -46 -13 -81 -18 -86
-12 -28 31 -462 676 -459 683 2 4 51 52 110 105 260 234 542 585 733 911 190
325 332 724 382 1070 27 192 24 551 -5 735 -113 695 -481 1335 -1143 1985
l-163 160 -4 123 c-12 336 72 812 204 1154 220 569 568 1029 1059 1398 633
476 1438 768 2500 904 390 50 1040 79 1485 66 146 -4 266 -6 268 -5 1 1 -66
47 -150 102 -658 430 -1396 713 -2143 822 -335 49 -421 54 -1045 56 -327 1
-615 1 -640 -1z m6187 -10736 c-3 -7 -5 -2 -5 12 0 14 2 19 5 13 2 -7 2 -19 0
-25z m-10 -60 c-3 -7 -5 -2 -5 12 0 14 2 19 5 13 2 -7 2 -19 0 -25z m-10 -65
c-3 -10 -5 -2 -5 17 0 19 2 27 5 18 2 -10 2 -26 0 -35z m-10 -65 c-3 -8 -6 -5
-6 6 -1 11 2 17 5 13 3 -3 4 -12 1 -19z m-13 -62 c-3 -21 -8 -35 -11 -32 -2 2
-1 20 3 40 3 21 8 35 11 32 2 -2 1 -20 -3 -40z m-17 -68 c-3 -8 -6 -5 -6 6 -1
11 2 17 5 13 3 -3 4 -12 1 -19z m-10 -50 c-3 -7 -5 -2 -5 12 0 14 2 19 5 13 2
-7 2 -19 0 -25z m-10 -40 c-3 -8 -6 -5 -6 6 -1 11 2 17 5 13 3 -3 4 -12 1 -19z
m-10 -40 c-3 -8 -6 -5 -6 6 -1 11 2 17 5 13 3 -3 4 -12 1 -19z m-10 -50 c-3
-7 -5 -2 -5 12 0 14 2 19 5 13 2 -7 2 -19 0 -25z m-10 -40 c-3 -8 -6 -5 -6 6
-1 11 2 17 5 13 3 -3 4 -12 1 -19z m-20 -70 c-3 -8 -6 -5 -6 6 -1 11 2 17 5
13 3 -3 4 -12 1 -19z m-6269 -852 c302 -75 572 -278 726 -546 157 -272 190
-616 89 -922 -193 -584 -826 -908 -1413 -722 -174 54 -317 141 -453 273 -444
432 -460 1132 -36 1585 73 79 179 161 282 220 88 50 260 110 357 125 92 14
371 6 448 -13z"/>
<path d="M18640 20654 c-156 -28 -847 -123 -1085 -149 -82 -9 -214 -24 -293
-33 l-143 -17 96 -84 c112 -100 394 -385 451 -456 21 -28 71 -89 110 -135 590
-704 1001 -1610 1153 -2541 64 -388 71 -548 71 -1571 l0 -867 413 -3 412 -3
50 -26 c226 -120 348 -537 290 -986 -30 -223 -120 -430 -226 -514 -74 -59
-120 -69 -304 -69 -144 0 -165 -2 -165 -16 0 -25 196 -806 280 -1114 15 -58
47 -175 70 -260 371 -1375 839 -2827 1246 -3862 19 -49 50 -130 70 -180 424
-1078 920 -2106 1401 -2902 94 -156 273 -438 302 -475 l18 -24 64 16 c156 41
334 88 454 121 72 19 228 62 348 95 120 33 221 61 223 64 3 2 -7 53 -21 113
-391 1643 -824 3754 -1050 5119 -184 1107 -267 1851 -269 2392 -1 106 -4 192
-8 190 -3 -1 -369 -247 -812 -547 -444 -300 -811 -545 -818 -545 -13 0 -12 -5
-108 375 -494 1954 -827 4043 -1015 6355 -19 237 -37 466 -40 510 -3 44 -8
109 -10 145 -5 67 -27 439 -45 755 -18 324 -18 326 -43 320 -17 -4 -65 32
-227 171 -218 187 -556 493 -655 593 -66 68 -65 67 -185 45z"/>
<path d="M13813 14300 c-131 -80 -136 -498 -7 -599 l27 -21 3006 0 c2117 0
3017 3 3045 11 24 6 57 29 87 59 139 139 110 450 -51 540 l-45 25 -3015 3
c-2980 2 -3015 2 -3047 -18z"/>
<path d="M18378 6473 c-667 -2 -938 -6 -938 -14 0 -20 94 -384 163 -629 31
-110 63 -216 163 -545 53 -174 258 -750 273 -767 3 -4 87 -3 186 2 99 5 232
12 295 15 63 3 273 14 465 25 193 11 385 20 428 20 56 0 79 4 83 13 3 8 -11
205 -31 438 -38 453 -101 1217 -112 1362 -5 72 -9 87 -22 85 -9 -2 -438 -4
-953 -5z"/>
<path d="M19035 4325 c-171 -72 -445 -185 -450 -185 -3 0 -5 17 -5 39 0 54
-31 91 -77 91 -71 0 -359 -128 -571 -254 -193 -115 -311 -222 -328 -298 -5
-26 -2 -35 16 -50 84 -68 630 46 1505 313 113 35 205 65 205 68 -1 18 -190
306 -201 308 -8 1 -50 -13 -94 -32z"/>
<path d="M23860 4290 c-25 -10 -147 -61 -272 -113 l-228 -95 0 42 c0 91 -45
108 -175 65 -117 -38 -424 -191 -545 -270 -127 -84 -246 -201 -256 -254 -8
-46 7 -61 72 -71 156 -23 791 125 1526 357 127 40 129 41 115 62 -7 12 -51 84
-97 160 -47 75 -87 137 -90 136 -3 -1 -25 -9 -50 -19z"/>
</g>
</svg>
